<?xml version="1.0" encoding="utf-8"?>
<!-- Generator: Adobe Illustrator 17.0.0, SVG Export Plug-In . SVG Version: 6.00 Build 0)  -->
<!DOCTYPE svg PUBLIC "-//W3C//DTD SVG 1.1//EN" "http://www.w3.org/Graphics/SVG/1.1/DTD/svg11.dtd">
<svg version="1.1" id="Слой_1" xmlns="http://www.w3.org/2000/svg" xmlns:xlink="http://www.w3.org/1999/xlink" x="0px" y="0px"
	 width="11px" height="11px" viewBox="0 0 11 11" enable-background="new 0 0 11 11" xml:space="preserve">
<path fill="#FFFFFF" d="M8.199,0.221l-2.7,2.699L2.802,0.221c-0.328-0.327-0.9-0.286-1.278,0.091L0.312,1.525
	c-0.377,0.378-0.419,0.95-0.091,1.277l2.698,2.699L0.221,8.199c-0.328,0.327-0.286,0.899,0.091,1.277l1.211,1.211
	c0.378,0.377,0.95,0.419,1.278,0.091L5.499,8.08l2.699,2.699c0.328,0.328,0.9,0.286,1.277-0.091l1.211-1.211
	C11.065,9.1,11.105,8.528,10.779,8.2L8.08,5.501l2.699-2.699c0.327-0.327,0.286-0.899-0.092-1.277L9.476,0.312
	C9.098-0.065,8.526-0.107,8.199,0.221z"/>
</svg>
